# xmcd
#
# Track frame offsets: 
#        150
#        19097
#        46007
#        68930
#        88442
#        106582
#        130460
#        149142
#        169135
#        195467
#
# Disc length: 2829 seconds
#
# Revision: 0
# Processed by: cddbd v1.5.2PL0 Copyright (c) Steve Scherf et al.
# Submitted via: ExactAudioCopyFreeDBPlugin 1.0
#
DISCID=8e0b0b0a
DTITLE=Franky Sahilatua - Perahu Retak
DYEAR=1995
DGENRE=Pop Country
TTITLE0=Perahu Retak
TTITLE1=E Wada
TTITLE2=Padang Bulan
TTITLE3=Tak Kunjung Datang
TTITLE4=Lho Koq!
TTITLE5=Lagu Capek
TTITLE6=Raksasa Kota
TTITLE7=Parodi Saridin
TTITLE8=Merah Putih Dan Reruntuhan
TTITLE9=Perahu Retak (Outro)
EXTD=
EXTT0=
EXTT1=
EXTT2=
EXTT3=
EXTT4=
EXTT5=
EXTT6=
EXTT7=
EXTT8=
EXTT9=
PLAYORDER=
